<svg xmlns="http://www.w3.org/2000/svg" width="16" height="22" viewBox="0 0 16 22" fill="none">
<path d="M15.0292 15.2592C15.1533 15.1242 15.2258 14.9496 15.2338 14.7664C15.2375 14.6787 15.223 14.5912 15.1912 14.5095C15.1593 14.4277 15.1108 14.3535 15.0488 14.2914C14.9868 14.2294 14.9125 14.1809 14.8307 14.149C14.749 14.1172 14.6615 14.1027 14.5738 14.1064H10.6402V0L5.3602 0V14.1086H1.4244C1.24936 14.1086 1.08148 14.1781 0.95771 14.3019C0.833936 14.4257 0.764401 14.5936 0.764401 14.7686C0.763176 14.8563 0.779916 14.9433 0.81359 15.0243C0.847264 15.1052 0.897159 15.1784 0.960201 15.2394L7.5272 21.8152C7.65602 21.9341 7.8249 22.0001 8.0002 22.0001C8.17551 22.0001 8.34438 21.9341 8.4732 21.8152L15.0292 15.2592Z" fill="#918E8E"/>
</svg>
