<svg xmlns="http://www.w3.org/2000/svg" width="280" height="61" viewBox="0 0 280 61" fill="none">
<path d="M89.1978 44.5829H106.576V51.1481H81.0142V11.4854H89.1978V44.5829Z" fill="#EAEAEA"/>
<path d="M128.65 51.1485C128.288 50.4394 128.026 49.56 127.858 48.5052C125.952 50.6326 123.47 51.6924 120.413 51.6924C117.521 51.6924 115.121 50.8562 113.209 49.1864C111.32 47.5165 110.373 45.4094 110.373 42.8678C110.373 39.7441 111.527 37.3473 113.838 35.6749C116.164 34.005 119.522 33.1612 123.905 33.1434H127.532V31.4532C127.532 30.0908 127.179 29.003 126.468 28.1846C125.776 27.3662 124.679 26.9595 123.169 26.9595C121.841 26.9595 120.795 27.2772 120.031 27.9126C119.285 28.548 118.913 29.4198 118.913 30.528H111.028C111.028 28.82 111.557 27.2416 112.611 25.7852C113.665 24.3339 115.156 23.2004 117.086 22.3819C119.013 21.5457 121.176 21.1289 123.577 21.1289C127.214 21.1289 130.096 22.0464 132.226 23.8815C134.372 25.6963 135.444 28.2557 135.444 31.5624V44.3394C135.464 47.1352 135.853 49.2499 136.617 50.6859V51.1485H128.65ZM122.131 45.6712C123.294 45.6712 124.368 45.4171 125.351 44.9113C126.331 44.3826 127.059 43.6862 127.532 42.8144V37.7463H124.587C120.639 37.7463 118.539 39.1087 118.285 41.8308L118.257 42.2959C118.257 43.2744 118.603 44.0852 119.293 44.7207C119.985 45.3535 120.932 45.6712 122.131 45.6712Z" fill="#EAEAEA"/>
<path d="M149.663 21.6728L149.907 24.9694C151.999 22.4099 154.83 21.1289 158.391 21.1289C162.194 21.1289 164.803 22.6285 166.223 25.6226C168.295 22.6285 171.251 21.1289 175.089 21.1289C178.289 21.1289 180.674 22.0642 182.237 23.9349C183.8 25.7852 184.584 28.5836 184.584 32.325V51.1485H176.672V32.3529C176.672 30.683 176.344 29.463 175.69 28.7031C175.033 27.9202 173.88 27.5288 172.223 27.5288C169.861 27.5288 168.224 28.6548 167.315 30.9092L167.341 51.1485H159.457V32.3783C159.457 30.6729 159.119 29.4376 158.447 28.6751C157.772 27.9126 156.627 27.5288 155.011 27.5288C152.773 27.5288 151.154 28.4565 150.154 30.3094V51.1485H142.271V21.6728H149.663Z" fill="#EAEAEA"/>
<path d="M190.207 36.1934C190.207 31.598 191.235 27.938 193.292 25.2134C195.364 22.4912 198.192 21.1289 201.776 21.1289C204.649 21.1289 207.022 22.1989 208.895 24.3416V9.30762H216.807V51.1485H209.687L209.305 48.0172C207.34 50.4674 204.812 51.6924 201.72 51.6924C198.248 51.6924 195.455 50.3327 193.345 47.608C191.253 44.863 190.207 41.0607 190.207 36.1934ZM198.092 36.7652C198.092 39.5255 198.573 41.6427 199.538 43.1118C200.503 44.5834 201.9 45.3179 203.738 45.3179C206.177 45.3179 207.895 44.2937 208.895 42.24V30.6093C207.913 28.5557 206.212 27.5288 203.794 27.5288C199.991 27.5288 198.092 30.6093 198.092 36.7652Z" fill="#EAEAEA"/>
<path d="M237.275 51.6924C232.942 51.6924 229.414 50.3682 226.685 47.7173C223.977 45.0638 222.62 41.5334 222.62 37.1185V36.356C222.62 33.3975 223.193 30.7542 224.341 28.4311C225.487 26.0877 227.105 24.2907 229.198 23.0352C231.308 21.7643 233.708 21.1289 236.399 21.1289C240.436 21.1289 243.61 22.3997 245.921 24.9439C248.248 27.4856 249.411 31.0897 249.411 35.7562V38.9739H230.616C230.87 40.898 231.634 42.4408 232.907 43.6049C234.2 44.7639 235.826 45.3459 237.791 45.3459C240.828 45.3459 243.203 44.2479 244.911 42.0494L248.785 46.3804C247.604 48.0528 246.003 49.3617 243.982 50.3022C241.963 51.2299 239.728 51.6924 237.275 51.6924ZM236.371 27.5034C234.808 27.5034 233.535 28.0295 232.553 29.0843C231.588 30.1366 230.972 31.6438 230.697 33.6034H241.663V32.9782C241.627 31.2371 241.156 29.8926 240.248 28.9471C239.336 27.9838 238.046 27.5034 236.371 27.5034Z" fill="#EAEAEA"/>
<path d="M261.94 21.6728L262.184 25.0812C264.295 22.4455 267.123 21.1289 270.668 21.1289C273.797 21.1289 276.126 22.0464 277.653 23.8815C279.183 25.7141 279.962 28.4565 280 32.1089V51.1485H272.114V32.297C272.114 30.6271 271.753 29.4198 271.025 28.6751C270.294 27.9126 269.085 27.5288 267.395 27.5288C265.175 27.5288 263.513 28.4743 262.403 30.3653V51.1485H254.517V21.6728H261.94Z" fill="#EAEAEA"/>
<path fill-rule="evenodd" clip-rule="evenodd" d="M30.3062 15.5829L14.812 31.0541L30.3062 46.5277L45.8029 31.0541L30.3062 15.5829ZM0 31.0541L30.3062 61.3177L60.6149 31.0541L30.3062 0.792969L0 31.0541Z" fill="#EAEAEA"/>
</svg>
