<?xml version="1.0" encoding="UTF-8" standalone="no"?>
<!-- Created with Inkscape (http://www.inkscape.org/) -->

<svg
   width="69.514999"
   height="26"
   viewBox="0 0 18.39251 6.8791666"
   version="1.1"
   id="svg5"
   inkscape:version="1.2.1 (1:1.2.1+202210291243+9c6d41e410)"
   sodipodi:docname="logo-dao.svg"
   xml:space="preserve"
   inkscape:export-filename="logo-dao.svg"
   inkscape:export-xdpi="96"
   inkscape:export-ydpi="96"
   xmlns:inkscape="http://www.inkscape.org/namespaces/inkscape"
   xmlns:sodipodi="http://sodipodi.sourceforge.net/DTD/sodipodi-0.dtd"
   xmlns="http://www.w3.org/2000/svg"
   xmlns:svg="http://www.w3.org/2000/svg"><sodipodi:namedview
     id="namedview7"
     pagecolor="#ffffff"
     bordercolor="#000000"
     borderopacity="0.25"
     inkscape:showpageshadow="false"
     inkscape:pageopacity="0.0"
     inkscape:pagecheckerboard="true"
     inkscape:deskcolor="#d1d1d1"
     inkscape:document-units="px"
     showgrid="false"
     inkscape:zoom="3.8342312"
     inkscape:cx="45.119867"
     inkscape:cy="58.551503"
     inkscape:window-width="1292"
     inkscape:window-height="704"
     inkscape:window-x="74"
     inkscape:window-y="27"
     inkscape:window-maximized="1"
     inkscape:current-layer="layer1"
     showborder="false"
     shape-rendering="auto" /><defs
     id="defs2"><rect
       x="190.10013"
       y="561.25983"
       width="64.777687"
       height="26.982794"
       id="rect1812" /><rect
       x="70.845474"
       y="474.63742"
       width="50.374424"
       height="27.319685"
       id="rect236" /></defs><g
     inkscape:label="Layer 1"
     inkscape:groupmode="layer"
     id="layer1"><g
       style="fill:none"
       id="g1808"
       transform="matrix(0.26458333,0,0,0.26458333,47.236267,134.43638)"><path
         d="M 0,19.623 V 5.735 h 2.54 l 1.178,0.62 C 4.26805,6.06066 4.85069,5.83176 5.454,5.673 6.2262,5.48988 7.01857,5.40587 7.812,5.423 c 1.24384,-0.03677 2.4852,0.13217 3.674,0.5 0.6398,0.20894 1.266,0.45742 1.875,0.744 l -1.085,2.7 C 11.8778,9.18288 11.4691,9.02227 11.052,8.886 10.3966,8.66606 9.72877,8.48508 9.052,8.344 8.22602,8.17075 7.38394,8.08594 6.54,8.091 H 6.2 C 5.8537,8.04129 5.50071,8.06829 5.16599,8.17007 4.83127,8.27185 4.52301,8.44593 4.263,8.68 3.90978,9.26776 3.74214,9.94843 3.782,10.633 v 8.99 z m 19.313,0 C 18.2193,19.7078 17.1298,19.4121 16.229,18.786 15.8671,18.436 15.5886,18.0091 15.4141,17.5369 15.2397,17.0646 15.1736,16.5592 15.221,16.058 V 9.703 C 15.2256,9.3245 15.2517,8.94656 15.299,8.571 15.357,8.10802 15.5044,7.66073 15.733,7.254 16.0159,6.77821 16.4369,6.39978 16.94,6.169 17.6869,5.84427 18.4985,5.69578 19.312,5.735 h 8.556 c 0.8185,-0.04217 1.6357,0.1064 2.387,0.434 0.4979,0.23354 0.914,0.61162 1.194,1.085 0.2286,0.40673 0.376,0.85402 0.434,1.317 0.047,0.37558 0.0727,0.75352 0.077,1.132 v 5.952 c -0.0024,0.4144 -0.0281,0.8284 -0.077,1.24 -0.0544,0.4607 -0.2079,0.9042 -0.45,1.3 -0.2924,0.4544 -0.7127,0.812 -1.208,1.028 -0.747,0.3027 -1.5509,0.4392 -2.356,0.4 z m 1.178,-2.666 h 6.2 c 1.0127,0 1.519,-0.4133 1.519,-1.24 V 9.641 c 0,-0.82667 -0.5063,-1.24 -1.519,-1.24 h -6.2 c -0.992,0 -1.488,0.41333 -1.488,1.24 v 6.076 c 0,0.8267 0.496,1.24 1.488,1.24 z m 18.662,2.666 c -0.8152,0.0408 -1.6296,-0.0957 -2.387,-0.4 C 36.2732,19.0115 35.8566,18.6546 35.572,18.2 35.3393,17.7996 35.1922,17.3552 35.14,16.895 35.0911,16.4834 35.0654,16.0694 35.063,15.655 V 9.703 c 0.0043,-0.37848 0.03,-0.75642 0.077,-1.132 0.058,-0.46298 0.2054,-0.91027 0.434,-1.317 0.2834,-0.47609 0.7051,-0.85455 1.209,-1.085 0.7466,-0.32458 1.5578,-0.47307 2.371,-0.434 h 4.309 c 1.8356,-0.03183 3.6716,0.03493 5.5,0.2 1.0847,0.13333 1.627,0.273 1.627,0.419 L 49.97,8.71 C 49.3913,8.66867 48.658,8.622 47.77,8.57 46.882,8.518 45.926,8.47667 44.902,8.446 43.8793,8.41467 42.8823,8.399 41.911,8.399 h -1.58 c -0.992,0 -1.488,0.41333 -1.488,1.24 v 6.076 c -0.0207,0.8267 0.4753,1.24 1.488,1.24 h 1.581 c 1.116,0 2.2063,-0.0153 3.271,-0.046 1.0647,-0.0307 2.0413,-0.072 2.93,-0.124 0.8887,-0.0513 1.6017,-0.098 2.139,-0.14 l 1.24,2.015 c 0,0.6407 -2.0357,0.961 -6.107,0.961 z m 29.357,0.31 c -0.7506,0.0171 -1.4989,-0.0876 -2.216,-0.31 -0.7378,-0.2927 -1.4,-0.7484 -1.937,-1.333 l -0.5,-0.5 c -0.2667,-0.2667 -0.561,-0.5667 -0.883,-0.9 -0.322,-0.3333 -0.6167,-0.6333 -0.884,-0.9 l -0.527,-0.527 c -0.4435,-0.4572 -0.9373,-0.8628 -1.472,-1.209 -0.5207,-0.3025 -1.1162,-0.4518 -1.718,-0.431 -0.275,-0.0358 -0.5545,0.0072 -0.806,0.124 -0.1179,0.2622 -0.1608,0.5519 -0.124,0.837 v 4.839 H 53.661 V 0 h 3.779 v 11.16 h 0.992 c 0.1862,-9e-4 0.3703,-0.0398 0.5409,-0.1144 0.1706,-0.0747 0.3241,-0.1834 0.4511,-0.3196 0.186,-0.186 0.5373,-0.558 1.054,-1.116 L 62.232,7.723 C 62.8833,7.02033 63.4777,6.36933 64.015,5.77 h 4.557 l -0.5,0.961 c -0.4753,0.496 -0.992,1.018 -1.55,1.566 -0.558,0.548 -1.0993,1.07333 -1.624,1.576 -0.5273,0.5067 -1.0077,0.951 -1.441,1.333 -0.3047,0.2855 -0.637,0.5401 -0.992,0.76 0.5977,0.3151 1.1593,0.6944 1.675,1.131 0.496,0.424 1.0333,0.8993 1.612,1.426 0.5787,0.5267 1.271,1.1207 2.077,1.782 0.5712,0.5055 1.2643,0.8532 2.011,1.009 0.62,0.0927 0.992,0.139 1.116,0.139 l -0.555,2.17 c -0.2067,0.062 -0.4857,0.1287 -0.837,0.2 -0.3467,0.0724 -0.6998,0.1092 -1.054,0.11 z m 8.091,-0.31 c -0.8152,0.0408 -1.6296,-0.0957 -2.387,-0.4 C 73.7215,19.0113 73.3054,18.6544 73.021,18.2 72.7882,17.8012 72.6405,17.3586 72.587,16.9 72.5381,16.4884 72.5124,16.0744 72.51,15.66 V 9.703 C 72.5143,9.32452 72.54,8.94658 72.587,8.571 72.645,8.10802 72.7924,7.66073 73.021,7.254 73.3044,6.77791 73.7261,6.39945 74.23,6.169 74.9766,5.84442 75.7878,5.69593 76.601,5.735 h 6.665 c 1.0833,-0.03656 2.1657,0.09431 3.209,0.388 0.6888,0.19127 1.2773,0.64079 1.643,1.255 0.3519,0.72265 0.517,1.52205 0.48,2.325 v 4.588 h -5.425 c -1.86,0 -3.3737,-0.0413 -4.541,-0.124 -1.1673,-0.0827 -1.9473,-0.1343 -2.34,-0.155 v 1.7 c -0.0207,0.8267 0.4753,1.24 1.488,1.24 h 1.58 c 1.116,0 2.2063,-0.0153 3.271,-0.046 1.0647,-0.0307 2.041,-0.072 2.929,-0.124 0.8887,-0.0513 1.6017,-0.098 2.139,-0.14 l 1.241,2.02 c 0,0.6407 -2.036,0.961 -6.108,0.961 z m -0.31,-8 h 8.525 V 9.641 C 84.8373,9.34472 84.7894,9.04756 84.676,8.773 84.5833,8.60767 84.3093,8.50433 83.854,8.463 83.3987,8.42167 82.6237,8.401 81.529,8.401 h -3.75 c -0.992,0 -1.488,0.41333 -1.488,1.24 z m 21.142,8 C 96.8562,19.6911 96.2715,19.6381 95.7163,19.4673 95.1611,19.2965 94.6478,19.0116 94.209,18.631 93.5688,17.7768 93.26,16.7195 93.34,15.655 V 8.401 H 90.799 V 5.735 h 1.3 c 0.2964,0.02334 0.5932,-0.04136 0.853,-0.186 0.2146,-0.19323 0.3524,-0.45739 0.388,-0.744 l 0.62,-3.317 h 3.162 v 4.247 h 6.448 v 2.666 h -6.447 v 7.285 c -0.0268,0.188 -0.0068,0.3796 0.0581,0.558 0.0648,0.1784 0.1727,0.3381 0.3139,0.465 0.3405,0.1879 0.7279,0.274 1.116,0.248 h 4.371 l 0.31,2.356 c -0.434,0.062 -1.095,0.1287 -1.984,0.2 -0.889,0.0713 -1.86,0.108 -2.914,0.11 z m 12.121,0 c -0.987,0.0336 -1.974,-0.0391 -2.945,-0.217 -0.579,-0.1447 -0.868,-0.2893 -0.868,-0.434 l 0.93,-2.325 c 0.6,0.062 1.7,0.1287 3.3,0.2 1.6,0.0713 3.579,0.1077 5.937,0.109 h 1.55 c 0.517,0 0.842,-0.1393 0.977,-0.418 0.149,-0.3581 0.217,-0.7446 0.2,-1.132 0.017,-0.3955 -0.062,-0.7893 -0.232,-1.147 -0.1,-0.1546 -0.243,-0.2774 -0.41,-0.3543 -0.168,-0.0768 -0.353,-0.1045 -0.536,-0.0797 h -7.626 c -1.107,0.0971 -2.214,-0.1931 -3.131,-0.821 -0.334,-0.313 -0.594,-0.6969 -0.76,-1.1234 -0.167,-0.4266 -0.235,-0.885 -0.201,-1.3416 v -1.24 c 0.005,-0.34288 0.036,-0.68489 0.093,-1.023 0.073,-0.42034 0.231,-0.82128 0.465,-1.178 0.3,-0.43553 0.72,-0.77459 1.209,-0.976 0.739,-0.29121 1.531,-0.42342 2.325,-0.388 h 8.556 c 0.884,-0.03362 1.769,0.03924 2.635,0.217 0.517,0.14467 0.775,0.28933 0.775,0.434 l -0.31,2.325 c -0.6,-0.062 -1.706,-0.12867 -3.317,-0.2 -1.611,-0.07133 -3.585,-0.10733 -5.921,-0.108 h -1.55 c -0.517,0 -0.842,0.13933 -0.977,0.418 -0.14,0.30636 -0.208,0.6404 -0.2,0.977 -0.012,0.3366 0.056,0.6714 0.2,0.976 0.133,0.258 0.459,0.387 0.977,0.387 h 7.626 c 1.104,-0.0911 2.204,0.2169 3.1,0.868 0.319,0.2695 0.574,0.607 0.745,0.9876 0.172,0.3807 0.256,0.7949 0.247,1.2124 v 1.829 c -0.002,0.3939 -0.028,0.7873 -0.078,1.178 -0.053,0.4184 -0.208,0.8176 -0.45,1.163 -0.308,0.4069 -0.728,0.7143 -1.209,0.884 -0.756,0.2584 -1.554,0.374 -2.353,0.341 z m 19.716,0 -4.991,-13.888 h 4.34 l 2.511,7.874 0.806,2.759 h 0.31 l 0.465,-2.449 2.139,-8.184 h 4.96 l 2.263,8.188 0.434,2.449 h 0.31 l 0.837,-2.821 2.356,-7.812 h 4.34 l -0.5,1.891 -4.46,11.993 h -4.96 l -2.573,-8.525 -0.31,-1.457 h -0.31 l -0.372,1.457 -2.635,8.525 z m 26.629,0 c -0.613,0.0569 -1.232,-0.0113 -1.818,-0.2004 -0.586,-0.1891 -1.128,-0.4951 -1.592,-0.8996 -0.738,-0.8284 -1.117,-1.9155 -1.054,-3.023 -0.037,-0.5644 0.041,-1.1303 0.231,-1.6633 0.189,-0.533 0.485,-1.0219 0.869,-1.4367 0.933,-0.7932 2.142,-1.1835 3.363,-1.085 h 1.581 c 1.55,0 2.945,0.0413 4.185,0.124 1.24,0.0827 2.263,0.1653 3.069,0.248 V 9.641 c -0.001,-0.19263 -0.022,-0.38466 -0.062,-0.573 -0.024,-0.1021 -0.07,-0.19786 -0.134,-0.28083 -0.064,-0.08298 -0.145,-0.15123 -0.238,-0.20017 -0.33,-0.14887 -0.693,-0.2128 -1.054,-0.186 h -1.55 c -2.253,0 -4.133,0.036 -5.642,0.108 -1.509,0.072 -2.532,0.13867 -3.069,0.2 l -0.341,-2.356 c 0,-0.28933 0.785,-0.465 2.356,-0.527 1.571,-0.062 4.195,-0.093 7.874,-0.093 h 1.55 c 0.819,-0.04217 1.636,0.1064 2.387,0.434 0.498,0.23359 0.914,0.61166 1.194,1.085 0.229,0.40673 0.376,0.85402 0.434,1.317 0.047,0.37558 0.073,0.75352 0.077,1.132 v 9.922 h -2.542 l -1.209,-0.62 c -0.867,0.1447 -1.91,0.2843 -3.131,0.419 -1.39,0.1424 -2.787,0.2091 -4.185,0.2 z m 0.806,-2.666 h 7.1 c 0.275,0.0358 0.554,-0.0072 0.806,-0.124 0.116,-0.2408 0.159,-0.5101 0.124,-0.775 v -2.387 h -8.029 c -0.211,-0.0243 -0.425,-10e-4 -0.626,0.0682 -0.201,0.0692 -0.384,0.1826 -0.536,0.3318 -0.247,0.3754 -0.362,0.8228 -0.326,1.271 -0.043,0.4461 0.09,0.8913 0.372,1.24 0.151,0.1336 0.328,0.2357 0.52,0.3001 0.191,0.0644 0.394,0.0898 0.595,0.0749 z m 15.376,8.432 V 5.735 h 2.542 l 0.775,0.4 c 0.933,-0.10333 2.044,-0.19633 3.333,-0.279 1.289,-0.08267 2.761,-0.124 4.417,-0.124 h 1.581 c 0.815,-0.04078 1.63,0.09569 2.387,0.4 0.492,0.21171 0.909,0.56859 1.193,1.023 0.233,0.39877 0.381,0.84137 0.434,1.3 0.049,0.41156 0.075,0.82555 0.077,1.24 v 5.952 c -0.004,0.3785 -0.03,0.7564 -0.077,1.132 -0.058,0.463 -0.205,0.9103 -0.434,1.317 -0.28,0.4732 -0.695,0.8512 -1.193,1.085 -0.751,0.3303 -1.568,0.4817 -2.387,0.442 h -1.581 c -1.571,0 -2.966,-0.0413 -4.185,-0.124 -1.219,-0.0827 -2.253,-0.1653 -3.1,-0.248 v 6.138 z m 4.743,-8.432 h 6.727 c 0.37,0.0068 0.732,-0.1016 1.038,-0.31 0.148,-0.1035 0.267,-0.2434 0.346,-0.4063 0.079,-0.1629 0.114,-0.3432 0.103,-0.5237 V 9.641 C 185.066,9.46637 185.051,9.2875 184.994,9.12 184.938,8.95249 184.841,8.80143 184.712,8.68 184.365,8.46444 183.957,8.3666 183.55,8.401 H 182 c -1.323,0 -2.495,0.026 -3.518,0.078 -1.023,0.052 -1.896,0.10867 -2.62,0.17 v 7.347 c -0.037,0.2814 0.011,0.5675 0.139,0.821 0.254,0.1286 0.541,0.1774 0.823,0.14 z"
         fill="#eaeaea"
         id="path1799" /></g><g
       aria-label="dao"
       transform="matrix(0.82804536,0,0,0.71364579,-157.90794,-402.40883)"
       id="text1810"
       style="font-family:Goldman;-inkscape-font-specification:Goldman;white-space:pre;shape-inside:url(#rect1812);fill:#ececec;stroke-width:11.6069"
       inkscape:export-filename="text1810.svg"
       inkscape:export-xdpi="96"
       inkscape:export-ydpi="96"><path
         d="m 192.28361,571.75977 q -0.6,0 -0.924,-0.156 -0.324,-0.156 -0.468,-0.396 -0.132,-0.24 -0.168,-0.504 -0.024,-0.264 -0.024,-0.48 v -2.304 q 0,-0.18 0.024,-0.432 0.036,-0.264 0.168,-0.516 0.144,-0.252 0.468,-0.42 0.336,-0.168 0.924,-0.168 h 0.612 q 1.104,0 1.776,0.048 0.684,0.036 1.044,0.084 v -2.364 h 1.464 v 7.608 h -0.984 l -0.468,-0.24 q -0.504,0.084 -1.212,0.168 -0.708,0.072 -1.632,0.072 z m 0.456,-1.032 h 2.604 q 0.252,0 0.312,-0.06 0.06,-0.06 0.06,-0.3 v -2.868 q -0.408,-0.024 -1.032,-0.048 -0.624,-0.036 -1.332,-0.036 h -0.612 q -0.576,0 -0.576,0.48 v 2.352 q 0,0.48 0.576,0.48 z"
         id="path1866"
         style="fill:#ececec" /><path
         d="m 200.28761,571.75977 q -0.912,0 -1.32,-0.42 -0.408,-0.432 -0.408,-1.176 0,-0.78 0.42,-1.2 0.432,-0.42 1.308,-0.42 h 0.612 q 0.9,0 1.62,0.048 0.72,0.048 1.188,0.096 v -0.792 q 0,-0.108 -0.024,-0.216 -0.024,-0.12 -0.144,-0.192 -0.12,-0.072 -0.408,-0.072 h -0.6 q -1.308,0 -2.184,0.048 -0.876,0.036 -1.188,0.072 l -0.132,-0.912 q 0,-0.168 0.912,-0.204 0.912,-0.036 3.048,-0.036 h 0.6 q 0.6,0 0.924,0.168 0.324,0.168 0.456,0.42 0.144,0.252 0.168,0.516 0.036,0.252 0.036,0.432 v 3.84 h -0.984 l -0.468,-0.24 q -0.504,0.084 -1.212,0.168 -0.708,0.072 -1.62,0.072 z m 0.312,-1.032 h 2.748 q 0.264,0 0.312,-0.048 0.048,-0.048 0.048,-0.3 v -0.924 h -3.108 q -0.324,0 -0.456,0.156 -0.12,0.156 -0.12,0.492 0,0.336 0.144,0.48 0.144,0.144 0.432,0.144 z"
         id="path1868"
         style="fill:#ececec" /><path
         d="m 208.0156,571.75977 q -0.804,0 -1.2,-0.324 -0.384,-0.324 -0.384,-1.056 v -2.46 q 0,-0.18 0.024,-0.432 0.036,-0.264 0.168,-0.516 0.144,-0.252 0.468,-0.42 0.336,-0.168 0.924,-0.168 h 3.312 q 0.6,0 0.924,0.168 0.324,0.168 0.456,0.42 0.144,0.252 0.168,0.516 0.036,0.252 0.036,0.432 v 2.304 q 0,0.216 -0.036,0.48 -0.024,0.264 -0.168,0.504 -0.144,0.24 -0.468,0.396 -0.324,0.156 -0.912,0.156 z m 0.456,-1.032 h 2.4 q 0.588,0 0.588,-0.48 v -2.352 q 0,-0.48 -0.588,-0.48 h -2.4 q -0.576,0 -0.576,0.48 v 2.352 q 0,0.48 0.576,0.48 z"
         id="path1870"
         style="fill:#ececec" /></g><rect
       style="fill:#ececec;stroke-width:2.51575"
       id="rect2331"
       width="27.072922"
       height="6.8791666"
       x="89.507591"
       y="149.43547" /></g></svg>
