<?xml version="1.0" encoding="UTF-8" standalone="no"?>
<!-- Created with Inkscape (http://www.inkscape.org/) -->

<svg
   width="104.94282mm"
   height="6.8791656mm"
   viewBox="0 0 104.94282 6.8791656"
   version="1.1"
   id="svg5"
   inkscape:version="1.2.2 (732a01da63, 2022-12-09, custom)"
   sodipodi:docname="logo-dao"
   xmlns:inkscape="http://www.inkscape.org/namespaces/inkscape"
   xmlns:sodipodi="http://sodipodi.sourceforge.net/DTD/sodipodi-0.dtd"
   xmlns="http://www.w3.org/2000/svg"
   xmlns:svg="http://www.w3.org/2000/svg">
  <sodipodi:namedview
     id="namedview7"
     pagecolor="#ffffff"
     bordercolor="#000000"
     borderopacity="0.25"
     inkscape:showpageshadow="2"
     inkscape:pageopacity="0.0"
     inkscape:pagecheckerboard="false"
     inkscape:deskcolor="#d1d1d1"
     inkscape:document-units="px"
     showgrid="false"
     showborder="false"
     shape-rendering="auto"
     inkscape:zoom="2.0812827"
     inkscape:cx="508.82083"
     inkscape:cy="380.29432"
     inkscape:window-width="1830"
     inkscape:window-height="1009"
     inkscape:window-x="90"
     inkscape:window-y="34"
     inkscape:window-maximized="1"
     inkscape:current-layer="layer1" />
  <defs
     id="defs2" />
  <g
     inkscape:label="Layer 1"
     inkscape:groupmode="layer"
     id="layer1"
     transform="translate(-76.920095,-89.479136)">
    <g
       aria-label="rocketswap governance"
       id="text3489"
       style="font-size:8.39947px;line-height:0;font-family:Goldman;-inkscape-font-specification:Goldman;fill:#ffffff;stroke:#000000;stroke-width:0"
       inkscape:export-filename="text3489.svg"
       inkscape:export-xdpi="96"
       inkscape:export-ydpi="96">
      <path
         d="m 76.920098,94.796005 v -3.762962 h 0.688757 l 0.31918,0.167989 q 0.218386,-0.117593 0.47037,-0.184788 0.251984,-0.0672 0.63836,-0.0672 0.613161,0 0.991137,0.134391 0.386376,0.134392 0.512368,0.201588 l -0.293981,0.730754 q -0.100794,-0.0504 -0.335979,-0.125992 -0.226786,-0.08399 -0.537566,-0.151191 -0.310781,-0.0672 -0.680357,-0.0672 h -0.09239 q -0.403174,0 -0.529166,0.15959 -0.117593,0.15959 -0.125992,0.529167 v 2.435846 z"
         id="path4729" />
      <path
         d="m 82.152964,94.796005 q -0.562765,0 -0.839947,-0.226785 -0.268784,-0.226786 -0.268784,-0.739154 v -1.721891 q 0,-0.125992 0.0168,-0.302381 0.0252,-0.184789 0.117593,-0.361177 0.100794,-0.176389 0.327579,-0.293982 0.235186,-0.117592 0.64676,-0.117592 h 2.318253 q 0.419974,0 0.64676,0.117592 0.226785,0.117593 0.319179,0.293982 0.100794,0.176388 0.117593,0.361177 0.0252,0.176389 0.0252,0.302381 v 1.612698 q 0,0.151191 -0.0252,0.335979 -0.0168,0.184788 -0.117593,0.352778 -0.100793,0.167989 -0.327579,0.277182 -0.226786,0.109193 -0.63836,0.109193 z m 0.319179,-0.722354 h 1.679894 q 0.411575,0 0.411575,-0.335979 v -1.646296 q 0,-0.335979 -0.411575,-0.335979 h -1.679894 q -0.403174,0 -0.403174,0.335979 v 1.646296 q 0,0.335979 0.403174,0.335979 z"
         id="path4731" />
      <path
         d="m 87.52862,94.796005 q -0.419974,0 -0.64676,-0.109193 -0.226785,-0.109193 -0.327579,-0.277182 -0.09239,-0.16799 -0.117592,-0.352778 -0.0168,-0.184788 -0.0168,-0.335979 v -1.612698 q 0,-0.125992 0.0168,-0.302381 0.0252,-0.184789 0.117592,-0.361177 0.100794,-0.176389 0.327579,-0.293982 0.235186,-0.117592 0.64676,-0.117592 h 1.167526 q 1.049934,0 1.486706,0.0588 0.445172,0.0504 0.445172,0.109193 l -0.167989,0.63836 q -0.235185,-0.0168 -0.596363,-0.0336 -0.361177,-0.0252 -0.78115,-0.0336 -0.411574,-0.0168 -0.806349,-0.0168 H 87.8478 q -0.403175,0 -0.403175,0.335979 v 1.646296 q -0.0084,0.335979 0.403175,0.335979 h 0.428373 q 0.453571,0 0.881944,-0.0084 0.436772,-0.0168 0.79795,-0.0336 0.361177,-0.0252 0.579563,-0.042 l 0.335979,0.545966 q 0,0.260383 -1.654696,0.260383 z"
         id="path4733" />
      <path
         d="m 95.482903,94.88 q -0.352778,0 -0.604762,-0.084 -0.243585,-0.08399 -0.520767,-0.361177 -0.0252,-0.0252 -0.134392,-0.134392 -0.109193,-0.109193 -0.243584,-0.243584 -0.125992,-0.134392 -0.235186,-0.243585 -0.109193,-0.109193 -0.142791,-0.142791 -0.209986,-0.209987 -0.403174,-0.327579 -0.184788,-0.117593 -0.461971,-0.117593 -0.184788,0 -0.218386,0.0336 -0.0336,0.0336 -0.0336,0.226786 v 1.310317 h -1.024735 v -5.316864 h 1.024735 v 3.023809 h 0.268783 q 0.15119,0 0.268783,-0.117593 0.0756,-0.07559 0.285582,-0.302381 0.209987,-0.226785 0.47037,-0.512367 0.268783,-0.285582 0.48717,-0.529167 H 95.4997 l -0.134392,0.260384 q -0.193188,0.201587 -0.419973,0.428373 -0.226786,0.218386 -0.445172,0.428373 -0.209987,0.201587 -0.386376,0.361177 -0.176389,0.15119 -0.268783,0.201587 0.251984,0.134392 0.453572,0.31078 0.201587,0.16799 0.436772,0.386376 0.235185,0.209987 0.562765,0.47877 0.293981,0.235185 0.545965,0.277182 0.251984,0.0336 0.302381,0.0336 l -0.15119,0.587963 q -0.084,0.0252 -0.226786,0.0504 -0.142791,0.0336 -0.285582,0.0336 z"
         id="path4735" />
      <path
         d="m 97.67515,94.796005 q -0.419974,0 -0.646759,-0.109193 -0.226786,-0.109193 -0.32758,-0.277182 -0.09239,-0.16799 -0.117592,-0.352778 -0.0168,-0.184788 -0.0168,-0.335979 v -1.612698 q 0,-0.125992 0.0168,-0.302381 0.0252,-0.184789 0.117592,-0.361177 0.100794,-0.176389 0.32758,-0.293982 0.235185,-0.117592 0.646759,-0.117592 h 1.805886 q 0.554364,0 0.865144,0.109193 0.31918,0.100793 0.44517,0.335978 0.13439,0.235186 0.13439,0.629961 v 1.243121 h -1.469902 q -0.755953,0 -1.234723,-0.0336 -0.47037,-0.0336 -0.62996,-0.042 v 0.461971 q -0.0084,0.335979 0.403175,0.335979 h 0.428373 q 0.453571,0 0.881944,-0.0084 0.436773,-0.0168 0.797953,-0.0336 0.36117,-0.0252 0.57956,-0.042 l 0.33598,0.545966 q 0,0.260383 -1.654697,0.260383 z m -0.084,-2.167063 h 2.309854 v -0.537566 q 0,-0.16799 -0.042,-0.235185 -0.0336,-0.0672 -0.218386,-0.084 -0.184788,-0.0168 -0.62996,-0.0168 H 97.99433 q -0.403175,0 -0.403175,0.335979 z"
         id="path4737" />
      <path
         d="m 103.31958,94.796005 q -0.63836,0 -0.87354,-0.268783 -0.23519,-0.268783 -0.23519,-0.806349 v -1.965476 h -0.68875 v -0.722354 h 0.35277 q 0.15959,0 0.22679,-0.0504 0.0756,-0.0504 0.10919,-0.201588 l 0.16799,-0.898743 h 0.85675 v 1.150728 h 1.74709 v 0.722354 h -1.74709 v 1.973876 q 0,0.209986 0.10079,0.277182 0.1008,0.0672 0.30238,0.0672 h 1.18433 l 0.084,0.63836 q -0.17639,0.0252 -0.53756,0.0588 -0.36118,0.0252 -0.78955,0.0252 z"
         id="path4739" />
      <path
         d="m 106.60377,94.796005 q -0.56276,0 -0.79795,-0.0588 -0.23518,-0.0588 -0.23518,-0.117593 l 0.25198,-0.62996 q 0.24359,0.0252 0.89035,0.0588 0.65516,0.0252 1.6127,0.0252 h 0.41997 q 0.20999,0 0.26038,-0.109193 0.0588,-0.117593 0.0588,-0.310781 0,-0.193188 -0.0672,-0.31078 -0.0588,-0.117593 -0.25198,-0.117593 h -2.06627 q -0.58796,0 -0.84835,-0.218386 -0.26038,-0.226786 -0.26038,-0.671958 v -0.335978 q 0,-0.117593 0.0252,-0.277183 0.0252,-0.15959 0.12599,-0.31918 0.10079,-0.15959 0.32758,-0.260383 0.22678,-0.109193 0.62996,-0.109193 h 2.31825 q 0.50397,0 0.71396,0.0588 0.20998,0.0588 0.20998,0.117592 l -0.084,0.629961 q -0.24358,-0.0252 -0.89874,-0.0504 -0.65516,-0.0336 -1.6043,-0.0336 h -0.41998 q -0.20998,0 -0.26878,0.117593 -0.0504,0.109193 -0.0504,0.260383 0,0.15959 0.0504,0.268783 0.0588,0.100794 0.26878,0.100794 h 2.06627 q 0.57117,0 0.83995,0.235185 0.26878,0.235185 0.26878,0.596362 v 0.495569 q 0,0.151191 -0.0252,0.31918 -0.0168,0.167989 -0.1176,0.31918 -0.10079,0.142791 -0.32758,0.235185 -0.22678,0.09239 -0.63836,0.09239 z"
         id="path4741" />
      <path
         d="m 111.94582,94.796005 -1.35231,-3.762962 h 1.17592 l 0.68036,2.133465 0.21839,0.747553 h 0.084 l 0.12599,-0.663558 0.57957,-2.21746 h 1.34391 l 0.61316,2.21746 0.1176,0.663558 h 0.084 l 0.22679,-0.764352 0.63836,-2.116666 h 1.17592 l -0.13439,0.512367 -1.20952,3.250595 h -1.34392 l -0.69715,-2.309854 -0.084,-0.394775 h -0.084 l -0.1008,0.394775 -0.71395,2.309854 z"
         id="path4743" />
      <path
         d="m 119.16095,94.796005 q -0.63836,0 -0.92394,-0.293981 -0.28558,-0.302381 -0.28558,-0.823148 0,-0.545966 0.29398,-0.839947 0.30238,-0.293982 0.91554,-0.293982 h 0.42837 q 0.62997,0 1.13393,0.0336 0.50397,0.0336 0.83155,0.0672 v -0.554365 q 0,-0.07559 -0.0168,-0.151191 -0.0168,-0.08399 -0.10079,-0.134391 -0.084,-0.0504 -0.28558,-0.0504 h -0.41998 q -0.91554,0 -1.5287,0.0336 -0.61316,0.0252 -0.83155,0.0504 l -0.0924,-0.63836 q 0,-0.117593 0.63836,-0.142791 0.63836,-0.0252 2.13346,-0.0252 h 0.41998 q 0.41997,0 0.64676,0.117592 0.22678,0.117593 0.31918,0.293982 0.10079,0.176388 0.11759,0.361177 0.0252,0.176389 0.0252,0.302381 v 2.68783 h -0.68876 l -0.32758,-0.167989 q -0.35278,0.0588 -0.84835,0.117592 -0.49556,0.0504 -1.13392,0.0504 z m 0.21839,-0.722354 h 1.92348 q 0.18479,0 0.21838,-0.0336 0.0336,-0.0336 0.0336,-0.209987 v -0.646759 h -2.17546 q -0.22679,0 -0.31918,0.109193 -0.084,0.109193 -0.084,0.344378 0,0.235186 0.1008,0.335979 0.10079,0.100794 0.30238,0.100794 z"
         id="path4745" />
      <path
         d="m 123.54546,96.358307 v -5.325264 h 0.68876 l 0.20999,0.109193 q 0.37797,-0.042 0.89874,-0.0756 0.52917,-0.0336 1.20113,-0.0336 h 0.42837 q 0.41997,0 0.64676,0.109193 0.22678,0.109193 0.31918,0.277182 0.10079,0.16799 0.11759,0.352778 0.0252,0.184788 0.0252,0.335979 v 1.612698 q 0,0.125992 -0.0252,0.31078 -0.0168,0.176389 -0.11759,0.352778 -0.0924,0.176389 -0.31918,0.293982 -0.22679,0.117592 -0.64676,0.117592 h -0.42837 q -0.63836,0 -1.13393,-0.0336 -0.49557,-0.0336 -0.83995,-0.06719 v 1.663095 z m 1.28512,-2.284656 h 1.82269 q 0.15959,0 0.27718,-0.084 0.12599,-0.084 0.12599,-0.251984 v -1.646296 q 0.008,-0.184789 -0.0924,-0.260384 -0.0924,-0.07559 -0.31078,-0.07559 h -0.41997 q -0.53757,0 -0.95754,0.0252 -0.41158,0.0168 -0.70556,0.042 v 1.990674 q 0,0.184789 0.0336,0.226786 0.042,0.0336 0.22678,0.0336 z"
         id="path4747" />
      <path
         d="m 133.61642,96.274312 q -0.92394,0 -1.5035,-0.0168 -0.57957,-0.0168 -0.89035,-0.0504 -0.31078,-0.0336 -0.42837,-0.08399 -0.10919,-0.0504 -0.10919,-0.109194 l 0.25198,-0.62996 q 0.13439,0.042 0.47037,0.100794 0.34438,0.0672 0.87355,0.0672 h 1.43631 q 0.31078,0 0.43677,-0.09239 0.13439,-0.09239 0.13439,-0.327579 v -0.503968 q -0.36118,0.0672 -0.85674,0.117592 -0.48717,0.0504 -1.12553,0.0504 h -0.41998 q -0.41997,0 -0.64676,-0.109193 -0.22678,-0.109193 -0.32758,-0.277182 -0.0924,-0.16799 -0.11759,-0.352778 -0.0168,-0.184788 -0.0168,-0.335979 v -1.612698 q 0,-0.125992 0.0168,-0.302381 0.0252,-0.184789 0.11759,-0.361177 0.1008,-0.176389 0.32758,-0.293982 0.23519,-0.117592 0.64676,-0.117592 h 0.42838 q 0.88194,0 1.36911,0.0336 0.49557,0.0336 0.72235,0.0756 l 0.21839,-0.109193 h 0.68876 v 4.166137 q 0,0.15119 -0.0504,0.335979 -0.042,0.184788 -0.17639,0.352777 -0.13439,0.16799 -0.38637,0.277183 -0.25199,0.109193 -0.66356,0.109193 z m -1.41111,-2.200661 h 1.82269 q 0.19319,0 0.22678,-0.0336 0.0336,-0.0336 0.0336,-0.218386 v -2.007474 q -0.28558,-0.0168 -0.72235,-0.0336 -0.43678,-0.0252 -0.93234,-0.0252 h -0.42838 q -0.40317,0 -0.40317,0.335979 v 1.646296 q -0.008,0.335979 0.40317,0.335979 z"
         id="path4749" />
      <path
         d="m 137.34578,94.796005 q -0.56277,0 -0.83995,-0.226785 -0.26878,-0.226786 -0.26878,-0.739154 v -1.721891 q 0,-0.125992 0.0168,-0.302381 0.0252,-0.184789 0.11759,-0.361177 0.10079,-0.176389 0.32758,-0.293982 0.23518,-0.117592 0.64676,-0.117592 h 2.31825 q 0.41997,0 0.64676,0.117592 0.22679,0.117593 0.31918,0.293982 0.10079,0.176388 0.11759,0.361177 0.0252,0.176389 0.0252,0.302381 v 1.612698 q 0,0.151191 -0.0252,0.335979 -0.0168,0.184788 -0.11759,0.352778 -0.10079,0.167989 -0.32758,0.277182 -0.22678,0.109193 -0.63836,0.109193 z m 0.31918,-0.722354 h 1.67989 q 0.41158,0 0.41158,-0.335979 v -1.646296 q 0,-0.335979 -0.41158,-0.335979 h -1.67989 q -0.40318,0 -0.40318,0.335979 v 1.646296 q 0,0.335979 0.40318,0.335979 z"
         id="path4751" />
      <path
         d="m 143.00702,94.796005 -1.73029,-3.762962 h 1.17592 l 0.96594,2.318253 0.21839,0.604762 h 0.084 l 0.21839,-0.604762 0.98274,-2.318253 h 1.14233 l -0.13439,0.512367 -1.57911,3.250595 z"
         id="path4753" />
      <path
         d="m 147.67711,94.796005 q -0.41997,0 -0.64676,-0.109193 -0.22678,-0.109193 -0.32758,-0.277182 -0.0924,-0.16799 -0.11759,-0.352778 -0.0168,-0.184788 -0.0168,-0.335979 v -1.612698 q 0,-0.125992 0.0168,-0.302381 0.0252,-0.184789 0.11759,-0.361177 0.1008,-0.176389 0.32758,-0.293982 0.23519,-0.117592 0.64676,-0.117592 h 1.80589 q 0.55436,0 0.86514,0.109193 0.31918,0.100793 0.44517,0.335978 0.1344,0.235186 0.1344,0.629961 v 1.243121 h -1.46991 q -0.75595,0 -1.23472,-0.0336 -0.47037,-0.0336 -0.62996,-0.042 v 0.461971 q -0.008,0.335979 0.40317,0.335979 h 0.42837 q 0.45357,0 0.88195,-0.0084 0.43677,-0.0168 0.79795,-0.0336 0.36117,-0.0252 0.57956,-0.042 l 0.33598,0.545966 q 0,0.260383 -1.6547,0.260383 z m -0.084,-2.167063 h 2.30985 v -0.537566 q 0,-0.16799 -0.042,-0.235185 -0.0336,-0.0672 -0.21838,-0.084 -0.18479,-0.0168 -0.62996,-0.0168 h -1.01634 q -0.40317,0 -0.40317,0.335979 z"
         id="path4755" />
      <path
         d="m 151.86003,94.796005 v -3.762962 h 0.68876 l 0.31918,0.167989 q 0.21838,-0.117593 0.47037,-0.184788 0.25198,-0.0672 0.63836,-0.0672 0.61316,0 0.99114,0.134391 0.38637,0.134392 0.51236,0.201588 l -0.29398,0.730754 q -0.10079,-0.0504 -0.33598,-0.125992 -0.22678,-0.08399 -0.53756,-0.151191 -0.31078,-0.0672 -0.68036,-0.0672 h -0.0924 q -0.40318,0 -0.52917,0.15959 -0.11759,0.15959 -0.12599,0.529167 v 2.435846 z"
         id="path4757" />
      <path
         d="m 156.06816,94.796005 v -3.762962 h 0.68876 l 0.33598,0.167989 q 0.35278,-0.0672 0.84834,-0.117593 0.49557,-0.0504 1.13393,-0.0504 h 0.41998 q 0.41997,0 0.64676,0.117592 0.22678,0.117593 0.31917,0.293982 0.1008,0.176388 0.1176,0.361177 0.0252,0.176389 0.0252,0.302381 v 2.68783 h -1.02474 v -2.704629 q 0,-0.335979 -0.40317,-0.335979 h -1.83109 q -0.15959,0 -0.20999,0.0336 -0.042,0.0252 -0.042,0.15119 v 2.85582 z"
         id="path4759" />
      <path
         d="m 162.65334,94.796005 q -0.63836,0 -0.92394,-0.293981 -0.28558,-0.302381 -0.28558,-0.823148 0,-0.545966 0.29398,-0.839947 0.30238,-0.293982 0.91554,-0.293982 h 0.42837 q 0.62996,0 1.13393,0.0336 0.50397,0.0336 0.83155,0.0672 v -0.554365 q 0,-0.07559 -0.0168,-0.151191 -0.0168,-0.08399 -0.10079,-0.134391 -0.084,-0.0504 -0.28558,-0.0504 h -0.41998 q -0.91554,0 -1.5287,0.0336 -0.61316,0.0252 -0.83155,0.0504 l -0.0924,-0.63836 q 0,-0.117593 0.63836,-0.142791 0.63836,-0.0252 2.13346,-0.0252 h 0.41998 q 0.41997,0 0.64676,0.117592 0.22678,0.117593 0.31917,0.293982 0.1008,0.176388 0.1176,0.361177 0.0252,0.176389 0.0252,0.302381 v 2.68783 h -0.68876 l -0.32758,-0.167989 q -0.35278,0.0588 -0.84835,0.117592 -0.49557,0.0504 -1.13392,0.0504 z m 0.21839,-0.722354 h 1.92348 q 0.18478,0 0.21838,-0.0336 0.0336,-0.0336 0.0336,-0.209987 v -0.646759 h -2.17546 q -0.22679,0 -0.31918,0.109193 -0.084,0.109193 -0.084,0.344378 0,0.235186 0.1008,0.335979 0.10079,0.100794 0.30238,0.100794 z"
         id="path4761" />
      <path
         d="m 167.03785,94.796005 v -3.762962 h 0.68876 l 0.33598,0.167989 q 0.35277,-0.0672 0.84834,-0.117593 0.49557,-0.0504 1.13393,-0.0504 h 0.41997 q 0.41998,0 0.64676,0.117592 0.22679,0.117593 0.31918,0.293982 0.1008,0.176388 0.1176,0.361177 0.0252,0.176389 0.0252,0.302381 v 2.68783 h -1.02473 v -2.704629 q 0,-0.335979 -0.40318,-0.335979 h -1.83108 q -0.15959,0 -0.20999,0.0336 -0.042,0.0252 -0.042,0.15119 v 2.85582 z"
         id="path4763" />
      <path
         d="m 173.56423,94.796005 q -0.41997,0 -0.64676,-0.109193 -0.22678,-0.109193 -0.32757,-0.277182 -0.0924,-0.16799 -0.1176,-0.352778 -0.0168,-0.184788 -0.0168,-0.335979 v -1.612698 q 0,-0.125992 0.0168,-0.302381 0.0252,-0.184789 0.1176,-0.361177 0.10079,-0.176389 0.32757,-0.293982 0.23519,-0.117592 0.64676,-0.117592 h 1.16753 q 1.04993,0 1.48671,0.0588 0.44517,0.0504 0.44517,0.109193 l -0.16799,0.63836 q -0.23519,-0.0168 -0.59636,-0.0336 -0.36118,-0.0252 -0.78115,-0.0336 -0.41158,-0.0168 -0.80635,-0.0168 h -0.42838 q -0.40317,0 -0.40317,0.335979 v 1.646296 q -0.008,0.335979 0.40317,0.335979 h 0.42838 q 0.45357,0 0.88194,-0.0084 0.43677,-0.0168 0.79795,-0.0336 0.36118,-0.0252 0.57956,-0.042 l 0.33598,0.545966 q 0,0.260383 -1.65469,0.260383 z"
         id="path4765" />
      <path
         d="m 178.51991,94.796005 q -0.41998,0 -0.64676,-0.109193 -0.22679,-0.109193 -0.32758,-0.277182 -0.0924,-0.16799 -0.11759,-0.352778 -0.0168,-0.184788 -0.0168,-0.335979 v -1.612698 q 0,-0.125992 0.0168,-0.302381 0.0252,-0.184789 0.11759,-0.361177 0.10079,-0.176389 0.32758,-0.293982 0.23518,-0.117592 0.64676,-0.117592 h 1.80588 q 0.55437,0 0.86515,0.109193 0.31918,0.100793 0.44517,0.335978 0.13439,0.235186 0.13439,0.629961 v 1.243121 h -1.46991 q -0.75595,0 -1.23472,-0.0336 -0.47037,-0.0336 -0.62996,-0.042 v 0.461971 q -0.008,0.335979 0.40318,0.335979 h 0.42837 q 0.45357,0 0.88194,-0.0084 0.43678,-0.0168 0.79795,-0.0336 0.36118,-0.0252 0.57957,-0.042 l 0.33598,0.545966 q 0,0.260383 -1.6547,0.260383 z m -0.084,-2.167063 h 2.30986 v -0.537566 q 0,-0.16799 -0.042,-0.235185 -0.0336,-0.0672 -0.21839,-0.084 -0.18479,-0.0168 -0.62996,-0.0168 h -1.01633 q -0.40318,0 -0.40318,0.335979 z"
         id="path4767" />
    </g>
  </g>
</svg>
