<svg xmlns="http://www.w3.org/2000/svg" width="189" height="26" viewBox="0 0 189 26" fill="none" >
<path d="M0 19.623V5.735H2.54L3.718 6.355C4.26805 6.06066 4.85069 5.83176 5.454 5.673C6.2262 5.48988 7.01857 5.40587 7.812 5.423C9.05584 5.38623 10.2972 5.55517 11.486 5.923C12.1258 6.13194 12.752 6.38042 13.361 6.667L12.276 9.367C11.8778 9.18288 11.4691 9.02227 11.052 8.886C10.3966 8.66606 9.72877 8.48508 9.052 8.344C8.22602 8.17075 7.38394 8.08594 6.54 8.091H6.2C5.8537 8.04129 5.50071 8.06829 5.16599 8.17007C4.83127 8.27185 4.52301 8.44593 4.263 8.68C3.90978 9.26776 3.74214 9.94843 3.782 10.633V19.623H0ZM19.313 19.623C18.2193 19.7078 17.1298 19.4121 16.229 18.786C15.8671 18.436 15.5886 18.0091 15.4141 17.5369C15.2397 17.0646 15.1736 16.5592 15.221 16.058V9.703C15.2256 9.3245 15.2517 8.94656 15.299 8.571C15.357 8.10802 15.5044 7.66073 15.733 7.254C16.0159 6.77821 16.4369 6.39978 16.94 6.169C17.6869 5.84427 18.4985 5.69578 19.312 5.735H27.868C28.6865 5.69283 29.5037 5.8414 30.255 6.169C30.7529 6.40254 31.169 6.78062 31.449 7.254C31.6776 7.66073 31.825 8.10802 31.883 8.571C31.93 8.94658 31.9557 9.32452 31.96 9.703V15.655C31.9576 16.0694 31.9319 16.4834 31.883 16.895C31.8286 17.3557 31.6751 17.7992 31.433 18.195C31.1406 18.6494 30.7203 19.007 30.225 19.223C29.478 19.5257 28.6741 19.6622 27.869 19.623H19.313ZM20.491 16.957H26.691C27.7037 16.957 28.21 16.5437 28.21 15.717V9.641C28.21 8.81433 27.7037 8.401 26.691 8.401H20.491C19.499 8.401 19.003 8.81433 19.003 9.641V15.717C19.003 16.5437 19.499 16.957 20.491 16.957ZM39.153 19.623C38.3378 19.6638 37.5234 19.5273 36.766 19.223C36.2732 19.0115 35.8566 18.6546 35.572 18.2C35.3393 17.7996 35.1922 17.3552 35.14 16.895C35.0911 16.4834 35.0654 16.0694 35.063 15.655V9.703C35.0673 9.32452 35.093 8.94658 35.14 8.571C35.198 8.10802 35.3454 7.66073 35.574 7.254C35.8574 6.77791 36.2791 6.39945 36.783 6.169C37.5296 5.84442 38.3408 5.69593 39.154 5.735H43.463C45.2986 5.70317 47.1346 5.76993 48.963 5.935C50.0477 6.06833 50.59 6.208 50.59 6.354L49.97 8.71C49.3913 8.66867 48.658 8.622 47.77 8.57C46.882 8.518 45.926 8.47667 44.902 8.446C43.8793 8.41467 42.8823 8.399 41.911 8.399H40.331C39.339 8.399 38.843 8.81233 38.843 9.639V15.715C38.8223 16.5417 39.3183 16.955 40.331 16.955H41.912C43.028 16.955 44.1183 16.9397 45.183 16.909C46.2477 16.8783 47.2243 16.837 48.113 16.785C49.0017 16.7337 49.7147 16.687 50.252 16.645L51.492 18.66C51.492 19.3007 49.4563 19.621 45.385 19.621L39.153 19.623ZM68.51 19.933C67.7594 19.9501 67.0111 19.8454 66.294 19.623C65.5562 19.3303 64.894 18.8746 64.357 18.29L63.857 17.79C63.5903 17.5233 63.296 17.2233 62.974 16.89C62.652 16.5567 62.3573 16.2567 62.09 15.99L61.563 15.463C61.1195 15.0058 60.6257 14.6002 60.091 14.254C59.5703 13.9515 58.9748 13.8022 58.373 13.823C58.098 13.7872 57.8185 13.8302 57.567 13.947C57.4491 14.2092 57.4062 14.4989 57.443 14.784V19.623H53.661V0H57.44V11.16H58.432C58.6182 11.1591 58.8023 11.1202 58.9729 11.0456C59.1435 10.9709 59.297 10.8622 59.424 10.726C59.61 10.54 59.9613 10.168 60.478 9.61L62.232 7.723C62.8833 7.02033 63.4777 6.36933 64.015 5.77H68.572L68.072 6.731C67.5967 7.227 67.08 7.749 66.522 8.297C65.964 8.845 65.4227 9.37033 64.898 9.873C64.3707 10.3797 63.8903 10.824 63.457 11.206C63.1523 11.4915 62.82 11.7461 62.465 11.966C63.0627 12.2811 63.6243 12.6604 64.14 13.097C64.636 13.521 65.1733 13.9963 65.752 14.523C66.3307 15.0497 67.023 15.6437 67.829 16.305C68.4002 16.8105 69.0933 17.1582 69.84 17.314C70.46 17.4067 70.832 17.453 70.956 17.453L70.401 19.623C70.1943 19.685 69.9153 19.7517 69.564 19.823C69.2173 19.8954 68.8642 19.9322 68.51 19.933ZM76.601 19.623C75.7858 19.6638 74.9714 19.5273 74.214 19.223C73.7215 19.0113 73.3054 18.6544 73.021 18.2C72.7882 17.8012 72.6405 17.3586 72.587 16.9C72.5381 16.4884 72.5124 16.0744 72.51 15.66V9.703C72.5143 9.32452 72.54 8.94658 72.587 8.571C72.645 8.10802 72.7924 7.66073 73.021 7.254C73.3044 6.77791 73.7261 6.39945 74.23 6.169C74.9766 5.84442 75.7878 5.69593 76.601 5.735H83.266C84.3493 5.69844 85.4317 5.82931 86.475 6.123C87.1638 6.31427 87.7523 6.76379 88.118 7.378C88.4699 8.10065 88.635 8.90005 88.598 9.703V14.291H83.173C81.313 14.291 79.7993 14.2497 78.632 14.167C77.4647 14.0843 76.6847 14.0327 76.292 14.012V15.712C76.2713 16.5387 76.7673 16.952 77.78 16.952H79.36C80.476 16.952 81.5663 16.9367 82.631 16.906C83.6957 16.8753 84.672 16.834 85.56 16.782C86.4487 16.7307 87.1617 16.684 87.699 16.642L88.94 18.662C88.94 19.3027 86.904 19.623 82.832 19.623H76.601ZM76.291 11.623H84.816V9.641C84.8373 9.34472 84.7894 9.04756 84.676 8.773C84.5833 8.60767 84.3093 8.50433 83.854 8.463C83.3987 8.42167 82.6237 8.401 81.529 8.401H77.779C76.787 8.401 76.291 8.81433 76.291 9.641V11.623ZM97.433 19.623C96.8562 19.6911 96.2715 19.6381 95.7163 19.4673C95.1611 19.2965 94.6478 19.0116 94.209 18.631C93.5688 17.7768 93.26 16.7195 93.34 15.655V8.401H90.799V5.735H92.099C92.3954 5.75834 92.6922 5.69364 92.952 5.549C93.1666 5.35577 93.3044 5.09161 93.34 4.805L93.96 1.488H97.122V5.735H103.57V8.401H97.123V15.686C97.0962 15.874 97.1162 16.0656 97.1811 16.244C97.2459 16.4224 97.3538 16.5821 97.495 16.709C97.8355 16.8969 98.2229 16.983 98.611 16.957H102.982L103.292 19.313C102.858 19.375 102.197 19.4417 101.308 19.513C100.419 19.5843 99.448 19.621 98.394 19.623H97.433ZM109.554 19.623C108.567 19.6566 107.58 19.5839 106.609 19.406C106.03 19.2613 105.741 19.1167 105.741 18.972L106.671 16.647C107.271 16.709 108.371 16.7757 109.971 16.847C111.571 16.9183 113.55 16.9547 115.908 16.956H117.458C117.975 16.956 118.3 16.8167 118.435 16.538C118.584 16.1799 118.652 15.7934 118.635 15.406C118.652 15.0105 118.573 14.6167 118.403 14.259C118.303 14.1044 118.16 13.9816 117.993 13.9047C117.825 13.8279 117.64 13.8002 117.457 13.825H109.831C108.724 13.9221 107.617 13.6319 106.7 13.004C106.366 12.691 106.106 12.3071 105.94 11.8806C105.773 11.454 105.705 10.9956 105.739 10.539V9.299C105.744 8.95612 105.775 8.61411 105.832 8.276C105.905 7.85566 106.063 7.45472 106.297 7.098C106.597 6.66247 107.017 6.32341 107.506 6.122C108.245 5.83079 109.037 5.69858 109.831 5.734H118.387C119.271 5.70038 120.156 5.77324 121.022 5.951C121.539 6.09567 121.797 6.24033 121.797 6.385L121.487 8.71C120.887 8.648 119.781 8.58133 118.17 8.51C116.559 8.43867 114.585 8.40267 112.249 8.402H110.699C110.182 8.402 109.857 8.54133 109.722 8.82C109.582 9.12636 109.514 9.4604 109.522 9.797C109.51 10.1336 109.578 10.4684 109.722 10.773C109.855 11.031 110.181 11.16 110.699 11.16H118.325C119.429 11.0689 120.529 11.3769 121.425 12.028C121.744 12.2975 121.999 12.635 122.17 13.0156C122.342 13.3963 122.426 13.8105 122.417 14.228V16.057C122.415 16.4509 122.389 16.8443 122.339 17.235C122.286 17.6534 122.131 18.0526 121.889 18.398C121.581 18.8049 121.161 19.1123 120.68 19.282C119.924 19.5404 119.126 19.656 118.327 19.623H109.554ZM129.27 19.623L124.279 5.735H128.619L131.13 13.609L131.936 16.368H132.246L132.711 13.919L134.85 5.735H139.81L142.073 13.923L142.507 16.372H142.817L143.654 13.551L146.01 5.739H150.35L149.85 7.63L145.39 19.623H140.43L137.857 11.098L137.547 9.641H137.237L136.865 11.098L134.23 19.623H129.27ZM155.899 19.623C155.286 19.6799 154.667 19.6117 154.081 19.4226C153.495 19.2335 152.953 18.9275 152.489 18.523C151.751 17.6946 151.372 16.6075 151.435 15.5C151.398 14.9356 151.476 14.3697 151.666 13.8367C151.855 13.3037 152.151 12.8148 152.535 12.4C153.468 11.6068 154.677 11.2165 155.898 11.315H157.479C159.029 11.315 160.424 11.3563 161.664 11.439C162.904 11.5217 163.927 11.6043 164.733 11.687V9.641C164.732 9.44837 164.711 9.25634 164.671 9.068C164.647 8.9659 164.601 8.87014 164.537 8.78717C164.473 8.70419 164.392 8.63594 164.299 8.587C163.969 8.43813 163.606 8.3742 163.245 8.401H161.695C159.442 8.401 157.562 8.437 156.053 8.509C154.544 8.581 153.521 8.64767 152.984 8.709L152.643 6.353C152.643 6.06367 153.428 5.888 154.999 5.826C156.57 5.764 159.194 5.733 162.873 5.733H164.423C165.242 5.69083 166.059 5.8394 166.81 6.167C167.308 6.40059 167.724 6.77866 168.004 7.252C168.233 7.65873 168.38 8.10602 168.438 8.569C168.485 8.94458 168.511 9.32252 168.515 9.701V19.623H165.973L164.764 19.003C163.897 19.1477 162.854 19.2873 161.633 19.422C160.243 19.5644 158.846 19.6311 157.448 19.622L155.899 19.623ZM156.705 16.957H163.805C164.08 16.9928 164.359 16.9498 164.611 16.833C164.727 16.5922 164.77 16.3229 164.735 16.058V13.671H156.706C156.495 13.6467 156.281 13.67 156.08 13.7392C155.879 13.8084 155.696 13.9218 155.544 14.071C155.297 14.4464 155.182 14.8938 155.218 15.342C155.175 15.7881 155.308 16.2333 155.59 16.582C155.741 16.7156 155.918 16.8177 156.11 16.8821C156.301 16.9465 156.504 16.9719 156.705 16.957ZM172.081 25.389V5.735H174.623L175.398 6.135C176.331 6.03167 177.442 5.93867 178.731 5.856C180.02 5.77333 181.492 5.732 183.148 5.732H184.729C185.544 5.69122 186.359 5.82769 187.116 6.132C187.608 6.34371 188.025 6.70059 188.309 7.155C188.542 7.55377 188.69 7.99637 188.743 8.455C188.792 8.86656 188.818 9.28055 188.82 9.695V15.647C188.816 16.0255 188.79 16.4034 188.743 16.779C188.685 17.242 188.538 17.6893 188.309 18.096C188.029 18.5692 187.614 18.9472 187.116 19.181C186.365 19.5113 185.548 19.6627 184.729 19.623H183.148C181.577 19.623 180.182 19.5817 178.963 19.499C177.744 19.4163 176.71 19.3337 175.863 19.251V25.389H172.081ZM176.824 16.957H183.551C183.921 16.9638 184.283 16.8554 184.589 16.647C184.737 16.5435 184.856 16.4036 184.935 16.2407C185.014 16.0778 185.049 15.8975 185.038 15.717V9.641C185.066 9.46637 185.051 9.2875 184.994 9.12C184.938 8.95249 184.841 8.80143 184.712 8.68C184.365 8.46444 183.957 8.3666 183.55 8.401H182C180.677 8.401 179.505 8.427 178.482 8.479C177.459 8.531 176.586 8.58767 175.862 8.649V15.996C175.825 16.2774 175.873 16.5635 176.001 16.817C176.255 16.9456 176.542 16.9944 176.824 16.957Z" fill="#EAEAEA"/>
</svg>
