<svg xmlns="http://www.w3.org/2000/svg" width="20" height="20" viewBox="0 0 20 20" fill="none">
<path d="M17.6311 12.7795L17.1657 12.9721L17.3617 13.4361C18.4136 15.9263 15.9263 18.4136 13.4361 17.3617L12.9687 17.1642L12.7781 17.6345C11.7704 20.1218 8.22964 20.1218 7.22186 17.6345L7.03131 17.1642L6.56389 17.3617C4.07371 18.4136 1.58643 15.9263 2.63832 13.4361L2.83576 12.9687L2.36548 12.7781C-0.121827 11.7704 -0.121827 8.22965 2.36548 7.22186L2.83576 7.03132L2.63832 6.56389C1.58643 4.07371 4.07371 1.58643 6.56389 2.63832L7.03131 2.83576L7.22186 2.36548C8.22964 -0.121827 11.7704 -0.121827 12.7781 2.36548L12.9687 2.83576L13.4361 2.63832C15.9263 1.58643 18.4136 4.07371 17.3617 6.56389L17.1642 7.03132L17.6345 7.22186C20.1175 8.22788 20.1273 11.7466 17.6311 12.7795Z" fill="#24FFBD" stroke="url(#paint0_linear_5390_20526)"/>
<g clip-path="url(#clip0_5390_20526)">
<path d="M7.55518 7.55575C7.55518 7.06952 7.78052 6.6032 8.18164 6.25938C8.58276 5.91557 9.1268 5.72241 9.69406 5.72241H10.3052C10.8724 5.72241 11.4165 5.91557 11.8176 6.25938C12.2187 6.6032 12.4441 7.06952 12.4441 7.55575C12.4666 7.95251 12.3595 8.34585 12.1391 8.67651C11.9187 9.00717 11.5967 9.25725 11.2218 9.38908C10.8469 9.56485 10.525 9.89829 10.3046 10.3392C10.0841 10.7801 9.97712 11.3045 9.99962 11.8335" stroke="black" stroke-width="1.5" stroke-linecap="round" stroke-linejoin="round"/>
<path d="M10 14.2778V14.2845" stroke="black" stroke-width="1.5" stroke-linecap="round" stroke-linejoin="round"/>
</g>
<defs>
<linearGradient id="paint0_linear_5390_20526" x1="-6.70552e-09" y1="6.1" x2="20.4604" y2="7.91744" gradientUnits="userSpaceOnUse">
<stop stop-color="#CF69FC"/>
<stop offset="0.484375" stop-color="#AF05FA"/>
<stop offset="1" stop-color="#8C04C8"/>
</linearGradient>
<clipPath id="clip0_5390_20526">
<rect width="14.6667" height="14.6667" fill="white" transform="translate(2.6665 2.66675)"/>
</clipPath>
</defs>
</svg>
