<svg width="11" height="11" viewBox="0 0 11 11" fill="none" xmlns="http://www.w3.org/2000/svg">
<path fill-rule="evenodd" clip-rule="evenodd" d="M5.63856 1.14733L8.36515 0.374119C9.9523 -0.0735214 11.2139 4.19963 9.58602 4.64713L6.98139 5.42034C5.23146 5.90869 4.05123 1.59482 5.63838 1.14733H5.63856ZM5.06885 5.99016L7.18509 8.83889C7.59202 9.4086 6.61538 9.69353 6.20836 9.12374L4.86535 7.33309V9.93772C4.86535 10.6296 3.92934 10.6296 3.92934 9.93772V7.33309L2.54569 9.16433C2.13876 9.73404 1.20268 9.40847 1.60968 8.83876L3.6852 6.03074L5.06885 5.66446V5.99016ZM0.632986 3.87392L1.7725 3.54835C1.60971 4.0367 1.89457 5.09479 2.34221 5.4203L1.24341 5.74587C0.470201 5.99001 -0.0588857 4.07736 0.632986 3.87392V3.87392ZM2.70851 2.61234L4.53975 2.08327C4.25489 2.93791 4.74325 4.64718 5.47576 5.17611L3.68511 5.70517C2.42353 6.07146 1.56887 2.93787 2.70838 2.61234H2.70851ZM8.6908 0.903115C9.01637 0.821757 9.50472 1.43218 9.74888 2.28677C9.99302 3.1414 9.91166 3.91463 9.54538 4.0367C9.21981 4.11806 8.73145 3.50763 8.4873 2.65305C8.24315 1.79841 8.32451 1.02519 8.6908 0.903115Z" fill="url(#paint0_linear_8625_259)" />
<defs>
<linearGradient id="paint0_linear_8625_259" x1="-6.70552e-09" y1="6.1" x2="20.4604" y2="7.91744" gradientUnits="userSpaceOnUse">
<stop stop-color="#C5FFAA"/>
<stop offset="1" stop-color="#00BAC6"/>
</linearGradient>
</defs>
</svg>
