<svg xmlns="http://www.w3.org/2000/svg" width="24" height="13" viewBox="0 0 24 13" fill="none">
<path d="M17 3.5C17.6904 3.5 18.25 2.94036 18.25 2.25C18.25 1.55964 17.6904 1 17 1C16.3096 1 15.75 1.55964 15.75 2.25C15.75 2.94036 16.3096 3.5 17 3.5Z" stroke="url(#paint0_linear_5174_20204)" stroke-width="1.5" stroke-linecap="round" stroke-linejoin="round"/>
<path d="M4.5 4.75L9.5 2.25L13.875 6L12 8.5" stroke="url(#paint1_linear_5174_20204)" stroke-width="1.5" stroke-linecap="round" stroke-linejoin="round"/>
<path d="M0.75 11.9377C1.13912 12.1311 1.56562 12.2378 2 12.2502C2.48687 12.2604 2.9689 12.1519 3.40447 11.9341C3.84003 11.7163 4.21604 11.3958 4.5 11.0002C4.78396 10.6046 5.15997 10.284 5.59553 10.0662C6.0311 9.84845 6.51313 9.73997 7 9.75017C7.48687 9.73997 7.9689 9.84845 8.40447 10.0662C8.84004 10.284 9.21604 10.6046 9.5 11.0002C9.78396 11.3958 10.16 11.7163 10.5955 11.9341C11.0311 12.1519 11.5131 12.2604 12 12.2502C12.4869 12.2604 12.9689 12.1519 13.4045 11.9341C13.84 11.7163 14.216 11.3958 14.5 11.0002C14.784 10.6046 15.16 10.284 15.5955 10.0662C16.0311 9.84845 16.5131 9.73997 17 9.75017C17.4869 9.73997 17.9689 9.84845 18.4045 10.0662C18.84 10.284 19.216 10.6046 19.5 11.0002C19.784 11.3958 20.16 11.7163 20.5955 11.9341C21.0311 12.1519 21.5131 12.2604 22 12.2502C22.4344 12.2378 22.8609 12.1311 23.25 11.9377" stroke="url(#paint2_linear_5174_20204)" stroke-width="1.5" stroke-linecap="round" stroke-linejoin="round"/>
<defs>
<linearGradient id="paint0_linear_5174_20204" x1="15.75" y1="1.7625" x2="18.3075" y2="1.98968" gradientUnits="userSpaceOnUse">
<stop stop-color="#C5FFAA"/>
<stop offset="1" stop-color="#00BAC6"/>
</linearGradient>
<linearGradient id="paint1_linear_5174_20204" x1="4.5" y1="4.15625" x2="13.9978" y2="5.42175" gradientUnits="userSpaceOnUse">
<stop stop-color="#C5FFAA"/>
<stop offset="1" stop-color="#00BAC6"/>
</linearGradient>
<linearGradient id="paint2_linear_5174_20204" x1="0.75" y1="10.5124" x2="14.9095" y2="21.8262" gradientUnits="userSpaceOnUse">
<stop stop-color="#C5FFAA"/>
<stop offset="1" stop-color="#00BAC6"/>
</linearGradient>
</defs>
</svg>
