<svg xmlns="http://www.w3.org/2000/svg" width="25" height="21" viewBox="0 0 25 21" fill="none">
<path d="M6.04167 19.5418C8.89514 19.5418 11.2083 17.2286 11.2083 14.3752C11.2083 11.5217 8.89514 9.2085 6.04167 9.2085C3.18819 9.2085 0.875 11.5217 0.875 14.3752C0.875 17.2286 3.18819 19.5418 6.04167 19.5418Z" stroke="url(#paint0_linear_5174_20204)" stroke-width="1.5" stroke-linecap="round" stroke-linejoin="round"/>
<path d="M6.0415 14.375V14.3887" stroke="url(#paint1_linear_5174_20204)" stroke-width="1.5" stroke-linecap="round" stroke-linejoin="round"/>
<path d="M21.5418 19.5417C22.9686 19.5417 24.1252 18.3851 24.1252 16.9583C24.1252 15.5316 22.9686 14.375 21.5418 14.375C20.1151 14.375 18.9585 15.5316 18.9585 16.9583C18.9585 18.3851 20.1151 19.5417 21.5418 19.5417Z" stroke="url(#paint2_linear_5174_20204)" stroke-width="1.5" stroke-linecap="round" stroke-linejoin="round"/>
<path d="M10.5625 16.9585H18.9583" stroke="url(#paint3_linear_5174_20204)" stroke-width="1.5" stroke-linecap="round" stroke-linejoin="round"/>
<path d="M22.8335 14.6335V9.2085C22.8335 8.86593 22.6974 8.53738 22.4552 8.29515C22.2129 8.05292 21.8844 7.91683 21.5418 7.91683H13.7918L11.2085 1.4585H3.4585V9.85433" stroke="url(#paint4_linear_5174_20204)" stroke-width="1.5" stroke-linecap="round" stroke-linejoin="round"/>
<path d="M20.2498 1.4585H18.9582C18.6156 1.4585 18.2871 1.59458 18.0448 1.83682C17.8026 2.07905 17.6665 2.40759 17.6665 2.75016V7.91683" stroke="url(#paint5_linear_5174_20204)" stroke-width="1.5" stroke-linecap="round" stroke-linejoin="round"/>
<defs>
<linearGradient id="paint0_linear_5174_20204" x1="0.875" y1="12.3602" x2="11.4462" y2="13.2992" gradientUnits="userSpaceOnUse">
<stop stop-color="#C5FFAA"/>
<stop offset="1" stop-color="#00BAC6"/>
</linearGradient>
<linearGradient id="paint1_linear_5174_20204" x1="6.0415" y1="14.3792" x2="6.06563" y2="14.535" gradientUnits="userSpaceOnUse">
<stop stop-color="#C5FFAA"/>
<stop offset="1" stop-color="#00BAC6"/>
</linearGradient>
<linearGradient id="paint2_linear_5174_20204" x1="18.9585" y1="15.9508" x2="24.2441" y2="16.4203" gradientUnits="userSpaceOnUse">
<stop stop-color="#C5FFAA"/>
<stop offset="1" stop-color="#00BAC6"/>
</linearGradient>
<linearGradient id="paint3_linear_5174_20204" x1="10.5625" y1="17.2635" x2="16.1254" y2="21.4122" gradientUnits="userSpaceOnUse">
<stop stop-color="#C5FFAA"/>
<stop offset="1" stop-color="#00BAC6"/>
</linearGradient>
<linearGradient id="paint4_linear_5174_20204" x1="3.4585" y1="5.47687" x2="23.1007" y2="8.0427" gradientUnits="userSpaceOnUse">
<stop stop-color="#C5FFAA"/>
<stop offset="1" stop-color="#00BAC6"/>
</linearGradient>
<linearGradient id="paint5_linear_5174_20204" x1="17.6665" y1="3.42829" x2="20.3268" y2="3.52281" gradientUnits="userSpaceOnUse">
<stop stop-color="#C5FFAA"/>
<stop offset="1" stop-color="#00BAC6"/>
</linearGradient>
</defs>
</svg>
