<svg xmlns="http://www.w3.org/2000/svg" width="23" height="22" viewBox="0 0 23 22" fill="none">
<path d="M14.5 9.75H15.75C16.413 9.75 17.0489 10.0134 17.5178 10.4822C17.9866 10.9511 18.25 11.587 18.25 12.25V16C18.25 16.4973 18.4475 16.9742 18.7992 17.3258C19.1508 17.6775 19.6277 17.875 20.125 17.875C20.6223 17.875 21.0992 17.6775 21.4508 17.3258C21.8025 16.9742 22 16.4973 22 16V7.25L18.25 3.5" stroke="#EAEAEA" stroke-width="1.5" stroke-linecap="round" stroke-linejoin="round"/>
<path d="M2 21V3.5C2 2.83696 2.26339 2.20107 2.73223 1.73223C3.20107 1.26339 3.83696 1 4.5 1H12C12.663 1 13.2989 1.26339 13.7678 1.73223C14.2366 2.20107 14.5 2.83696 14.5 3.5V21" stroke="#EAEAEA" stroke-width="1.5" stroke-linecap="round" stroke-linejoin="round"/>
<path d="M0.75 21H15.75" stroke="#EAEAEA" stroke-width="1.5" stroke-linecap="round" stroke-linejoin="round"/>
<path d="M19.5 4.75V6C19.5 6.33152 19.6317 6.64946 19.8661 6.88388C20.1005 7.1183 20.4185 7.25 20.75 7.25H22" stroke="#EAEAEA" stroke-width="1.5" stroke-linecap="round" stroke-linejoin="round"/>
<path d="M2 9.75H14.5" stroke="#EAEAEA" stroke-width="1.5" stroke-linecap="round" stroke-linejoin="round"/>
</svg>
