<svg xmlns="http://www.w3.org/2000/svg" width="24" height="24" viewBox="0 0 24 24" fill="none">
<path d="M12 23.25C18.2132 23.25 23.25 18.2132 23.25 12C23.25 5.7868 18.2132 0.75 12 0.75C5.7868 0.75 0.75 5.7868 0.75 12C0.75 18.2132 5.7868 23.25 12 23.25Z" stroke="url(#paint0_linear_5174_20204)" stroke-width="1.5" stroke-linecap="round" stroke-linejoin="round"/>
<path d="M12 18.25V18.2625" stroke="url(#paint1_linear_5174_20204)" stroke-width="1.5" stroke-linecap="round" stroke-linejoin="round"/>
<path d="M12 13.875C11.977 13.4692 12.0864 13.0669 12.3119 12.7287C12.5373 12.3906 12.8666 12.1348 13.25 12C13.7198 11.8203 14.1416 11.534 14.482 11.1637C14.8224 10.7933 15.0721 10.349 15.2117 9.8657C15.3512 9.38241 15.3766 8.87333 15.2859 8.37854C15.1952 7.88376 14.991 7.41678 14.6891 7.01436C14.3873 6.61194 13.9962 6.28507 13.5466 6.05949C13.097 5.8339 12.6012 5.71576 12.0982 5.71437C11.5951 5.71297 11.0987 5.82836 10.6478 6.05145C10.197 6.27453 9.80404 6.59922 9.5 6.99996" stroke="url(#paint2_linear_5174_20204)" stroke-width="1.5" stroke-linecap="round" stroke-linejoin="round"/>
<defs>
<linearGradient id="paint0_linear_5174_20204" x1="0.75" y1="7.6125" x2="23.7679" y2="9.65712" gradientUnits="userSpaceOnUse">
<stop stop-color="#C5FFAA"/>
<stop offset="1" stop-color="#00BAC6"/>
</linearGradient>
<linearGradient id="paint1_linear_5174_20204" x1="12" y1="18.2538" x2="12.02" y2="18.3961" gradientUnits="userSpaceOnUse">
<stop stop-color="#C5FFAA"/>
<stop offset="1" stop-color="#00BAC6"/>
</linearGradient>
<linearGradient id="paint2_linear_5174_20204" x1="9.5" y1="8.20334" x2="15.4965" y2="8.58447" gradientUnits="userSpaceOnUse">
<stop stop-color="#C5FFAA"/>
<stop offset="1" stop-color="#00BAC6"/>
</linearGradient>
</defs>
</svg>
