<?xml version="1.0" encoding="utf-8"?>
<!-- Created by sK1 2.0rc5 (https://sk1project.net/) -->
<svg xmlns="http://www.w3.org/2000/svg" height="841.88976378px" width="595.275590551px" version="1.1" xmlns:xlink="http://www.w3.org/1999/xlink" id="3c34231c-4d28-11ed-b4ee-c1839a4ca23f">

<g>
	<g>
		<path style="stroke-width:0.2835;stroke:#2d2c2b;fill-rule:evenodd;stroke-miterlimit:10.433;fill:#9932cc;" d="M 47.6376,670.9433 L 47.6376,170.9493 547.6364,170.9493 547.6364,670.9433 47.6376,670.9433 Z" />
		<g>
			<g>
				<path style="fill:#2d2c2b;" d="M 165.1751,379.6239 L 165.1751,462.2665 183.1586,462.2665 C 198.3183,462.2665 209.4239,458.9511 216.4753,452.3204 223.5188,445.6747 227.0445,435.171 227.0445,420.8246 227.0445,406.5837 223.5188,396.1554 216.4753,389.5398 209.4239,382.9317 198.3183,379.6239 183.1586,379.6239 Z M 150.3151,367.8996 L 180.8554,367.8996 C 202.1595,367.8996 217.8004,372.1794 227.7701,380.739 237.7399,389.2836 242.7248,402.6429 242.7248,420.8246 242.7248,439.1344 237.7163,452.5766 227.707,461.1513 217.6899,469.7109 202.0727,473.9908 180.8554,473.9908 L 150.3151,473.9908 Z" />
				<path style="fill:#2d2c2b;" d="M 300.1141,382.6378 L 279.9537,435.1108 320.3692,435.1108 Z M 291.7218,368.864 L 308.601,368.864 350.4993,473.9908 335.0399,473.9908 325.007,446.9857 275.4736,446.9857 265.4408,473.9908 249.7604,473.9908 Z" />
				<path style="fill:#2d2c2b;" d="M 408.9613,377.5442 C 398.1713,377.5442 389.5897,381.4322 383.2166,389.2082 376.8593,396.9692 373.6885,407.5557 373.6885,420.9753 373.6885,434.3422 376.8593,444.9061 383.2166,452.6821 389.5897,460.4581 398.1713,464.3461 408.9613,464.3461 419.7672,464.3461 428.3172,460.4581 434.6114,452.6821 440.9214,444.9061 444.0764,434.3422 444.0764,420.9753 444.0764,407.5557 440.9214,396.9692 434.6114,389.2082 428.3172,381.4322 419.7672,377.5442 408.9613,377.5442 Z M 408.9613,365.9706 C 424.3735,365.9706 436.6937,370.9587 445.9063,380.9199 455.1346,390.8659 459.7567,404.2177 459.7567,420.9753 459.7567,437.6952 455.1346,451.0395 445.9063,461.0006 436.6937,470.9467 424.3735,475.9197 408.9613,475.9197 393.5019,475.9197 381.1422,470.9617 371.8902,461.0308 362.6303,451.0847 358.0082,437.7329 358.0082,420.9753 358.0082,404.2177 362.6303,390.8659 371.8902,380.9199 381.1422,370.9587 393.5019,365.9706 408.9613,365.9706 Z" />
			</g>
		</g>
	</g>
</g>
</svg>