<svg xmlns="http://www.w3.org/2000/svg" width="31" height="32" viewBox="0 0 31 32" fill="none">
<path d="M12.4461 31.1838L12.4461 0.816211C12.4461 0.486602 12.1937 0.189084 11.8059 0.0623526C11.418 -0.0643773 10.972 0.00578832 10.6754 0.239126L0.303883 8.39777C-0.101296 8.7165 -0.101296 9.23268 0.303883 9.55141C0.708371 9.87014 1.36592 9.87014 1.77041 9.55141L10.3711 2.78571L10.3711 31.1838C10.3711 31.6341 10.8351 31.9997 11.4083 31.9997C11.9815 31.9997 12.4461 31.6341 12.4461 31.1838ZM18.5542 0.816211L18.5542 31.1838C18.5542 31.5134 18.8066 31.8109 19.1945 31.9376C19.5824 32.0644 20.0284 31.9942 20.325 31.7609L30.6965 23.6022C30.899 23.4429 31 23.234 31 23.0251C31 22.8163 30.899 22.6074 30.6965 22.4481C30.292 22.1293 29.6344 22.1293 29.2299 22.4481L20.6285 29.2143L20.6285 0.816211C20.6285 0.365853 20.1646 0.000346256 19.5914 0.000346281C19.0182 0.000346306 18.5542 0.365853 18.5542 0.816211Z" fill="url(#paint0_linear_8079_31547)"/>
<defs>
<linearGradient id="paint0_linear_8079_31547" x1="9.455" y1="32" x2="12.4552" y2="-0.719773" gradientUnits="userSpaceOnUse">
<stop stop-color="#C5FFAA"/>
<stop offset="1" stop-color="#00BAC6"/>
</linearGradient>
</defs>
</svg>
