<svg xmlns="http://www.w3.org/2000/svg" width="27" height="27" viewBox="0 0 27 27" fill="none">
<path d="M15.75 9C16.9926 9 18 7.99264 18 6.75C18 5.50736 16.9926 4.5 15.75 4.5C14.5074 4.5 13.5 5.50736 13.5 6.75C13.5 7.99264 14.5074 9 15.75 9Z" stroke="url(#paint0_linear_8625_919)" stroke-width="1.5" stroke-linecap="round" stroke-linejoin="round"/>
<path d="M4.5 6.75H13.5" stroke="url(#paint1_linear_8625_919)" stroke-width="1.5" stroke-linecap="round" stroke-linejoin="round"/>
<path d="M18 6.75H22.5" stroke="url(#paint2_linear_8625_919)" stroke-width="1.5" stroke-linecap="round" stroke-linejoin="round"/>
<path d="M9 15.75C10.2426 15.75 11.25 14.7426 11.25 13.5C11.25 12.2574 10.2426 11.25 9 11.25C7.75736 11.25 6.75 12.2574 6.75 13.5C6.75 14.7426 7.75736 15.75 9 15.75Z" stroke="url(#paint3_linear_8625_919)" stroke-width="1.5" stroke-linecap="round" stroke-linejoin="round"/>
<path d="M4.5 13.5H6.75" stroke="url(#paint4_linear_8625_919)" stroke-width="1.5" stroke-linecap="round" stroke-linejoin="round"/>
<path d="M11.25 13.5H22.5" stroke="url(#paint5_linear_8625_919)" stroke-width="1.5" stroke-linecap="round" stroke-linejoin="round"/>
<path d="M19.125 22.5C20.3676 22.5 21.375 21.4926 21.375 20.25C21.375 19.0074 20.3676 18 19.125 18C17.8824 18 16.875 19.0074 16.875 20.25C16.875 21.4926 17.8824 22.5 19.125 22.5Z" stroke="url(#paint6_linear_8625_919)" stroke-width="1.5" stroke-linecap="round" stroke-linejoin="round"/>
<path d="M4.5 20.25H16.875" stroke="url(#paint7_linear_8625_919)" stroke-width="1.5" stroke-linecap="round" stroke-linejoin="round"/>
<path d="M21.375 20.25H22.5" stroke="url(#paint8_linear_8625_919)" stroke-width="1.5" stroke-linecap="round" stroke-linejoin="round"/>
<defs>
<linearGradient id="paint0_linear_8625_919" x1="13.5" y1="5.8725" x2="18.1036" y2="6.28142" gradientUnits="userSpaceOnUse">
<stop stop-color="#C5FFAA"/>
<stop offset="1" stop-color="#00BAC6"/>
</linearGradient>
<linearGradient id="paint1_linear_8625_919" x1="4.5" y1="7.055" x2="10.1615" y2="11.581" gradientUnits="userSpaceOnUse">
<stop stop-color="#C5FFAA"/>
<stop offset="1" stop-color="#00BAC6"/>
</linearGradient>
<linearGradient id="paint2_linear_8625_919" x1="18" y1="7.055" x2="22.0007" y2="8.65417" gradientUnits="userSpaceOnUse">
<stop stop-color="#C5FFAA"/>
<stop offset="1" stop-color="#00BAC6"/>
</linearGradient>
<linearGradient id="paint3_linear_8625_919" x1="6.75" y1="12.6225" x2="11.3536" y2="13.0314" gradientUnits="userSpaceOnUse">
<stop stop-color="#C5FFAA"/>
<stop offset="1" stop-color="#00BAC6"/>
</linearGradient>
<linearGradient id="paint4_linear_8625_919" x1="4.5" y1="13.805" x2="6.73084" y2="14.2509" gradientUnits="userSpaceOnUse">
<stop stop-color="#C5FFAA"/>
<stop offset="1" stop-color="#00BAC6"/>
</linearGradient>
<linearGradient id="paint5_linear_8625_919" x1="11.25" y1="13.805" x2="17.0539" y2="19.6049" gradientUnits="userSpaceOnUse">
<stop stop-color="#C5FFAA"/>
<stop offset="1" stop-color="#00BAC6"/>
</linearGradient>
<linearGradient id="paint6_linear_8625_919" x1="16.875" y1="19.3725" x2="21.4786" y2="19.7814" gradientUnits="userSpaceOnUse">
<stop stop-color="#C5FFAA"/>
<stop offset="1" stop-color="#00BAC6"/>
</linearGradient>
<linearGradient id="paint7_linear_8625_919" x1="4.5" y1="20.555" x2="10.278" y2="26.9064" gradientUnits="userSpaceOnUse">
<stop stop-color="#C5FFAA"/>
<stop offset="1" stop-color="#00BAC6"/>
</linearGradient>
<linearGradient id="paint8_linear_8625_919" x1="21.375" y1="20.555" x2="22.5235" y2="20.6698" gradientUnits="userSpaceOnUse">
<stop stop-color="#C5FFAA"/>
<stop offset="1" stop-color="#00BAC6"/>
</linearGradient>
</defs>
</svg>
