<svg xmlns="http://www.w3.org/2000/svg" width="25" height="20" viewBox="0 0 25 20" fill="none">
<path d="M23.75 1.51114C22.625 2.06239 21.5225 2.28627 20.375 2.62489C19.1139 1.20177 17.2441 1.12302 15.4475 1.79577C13.6509 2.46852 12.4741 4.11327 12.5 5.99989V7.12489C8.84938 7.21827 5.59813 5.55552 3.5 2.62489C3.5 2.62489 -1.20475 10.987 8 14.9999C5.894 16.4028 3.79362 17.3489 1.25 17.2499C4.9715 19.2783 9.02713 19.9758 12.5383 18.9565C16.5658 17.7865 19.8755 14.7681 21.1456 10.2468C21.5245 8.87165 21.7126 7.45099 21.7047 6.02464C21.7025 5.74452 23.4035 2.90614 23.75 1.51002V1.51114Z" stroke="url(#paint0_linear_8332_36087)" stroke-linecap="round" stroke-linejoin="round"/>
<defs>
<linearGradient id="paint0_linear_8332_36087" x1="1.25" y1="6.88718" x2="24.168" y2="9.42703" gradientUnits="userSpaceOnUse">
<stop stop-color="#C5FFAA"/>
<stop offset="1" stop-color="#00BAC6"/>
</linearGradient>
</defs>
</svg>
