<svg xmlns="http://www.w3.org/2000/svg" width="25" height="21" viewBox="0 0 25 21" fill="none">
<path d="M6.04167 19.5418C8.89514 19.5418 11.2083 17.2286 11.2083 14.3752C11.2083 11.5217 8.89514 9.2085 6.04167 9.2085C3.18819 9.2085 0.875 11.5217 0.875 14.3752C0.875 17.2286 3.18819 19.5418 6.04167 19.5418Z" stroke="#EAEAEA" stroke-width="1.5" stroke-linecap="round" stroke-linejoin="round"/>
<path d="M6.04163 14.375V14.3887" stroke="#EAEAEA" stroke-width="1.5" stroke-linecap="round" stroke-linejoin="round"/>
<path d="M21.5417 19.5417C22.9684 19.5417 24.125 18.3851 24.125 16.9583C24.125 15.5316 22.9684 14.375 21.5417 14.375C20.115 14.375 18.9584 15.5316 18.9584 16.9583C18.9584 18.3851 20.115 19.5417 21.5417 19.5417Z" stroke="#EAEAEA" stroke-width="1.5" stroke-linecap="round" stroke-linejoin="round"/>
<path d="M10.5625 16.9585H18.9583" stroke="#EAEAEA" stroke-width="1.5" stroke-linecap="round" stroke-linejoin="round"/>
<path d="M22.8334 14.6335V9.2085C22.8334 8.86593 22.6973 8.53738 22.4551 8.29515C22.2128 8.05292 21.8843 7.91683 21.5417 7.91683H13.7917L11.2084 1.4585H3.45837V9.85433" stroke="#EAEAEA" stroke-width="1.5" stroke-linecap="round" stroke-linejoin="round"/>
<path d="M20.25 1.4585H18.9583C18.6157 1.4585 18.2872 1.59458 18.0449 1.83682C17.8027 2.07905 17.6666 2.40759 17.6666 2.75016V7.91683" stroke="#EAEAEA" stroke-width="1.5" stroke-linecap="round" stroke-linejoin="round"/>
</svg>
