<svg xmlns="http://www.w3.org/2000/svg" width="24" height="24" viewBox="0 0 24 24" fill="none" >
<path d="M3.25 12H0.75L12 0.75L23.25 12H20.75" stroke="url(#paint0_linear_5174_20204)" stroke-width="1.5" stroke-linecap="round" stroke-linejoin="round"/>
<path d="M3.25 12V20.75C3.25 21.413 3.51339 22.0489 3.98223 22.5178C4.45107 22.9866 5.08696 23.25 5.75 23.25H18.25C18.913 23.25 19.5489 22.9866 20.0178 22.5178C20.4866 22.0489 20.75 21.413 20.75 20.75V12" stroke="url(#paint1_linear_5174_20204)" stroke-width="1.5" stroke-linecap="round" stroke-linejoin="round"/>
<path d="M8.25 23.25V15.75C8.25 15.087 8.51339 14.4511 8.98223 13.9822C9.45107 13.5134 10.087 13.25 10.75 13.25H13.25C13.913 13.25 14.5489 13.5134 15.0178 13.9822C15.4866 14.4511 15.75 15.087 15.75 15.75V23.25" stroke="url(#paint2_linear_5174_20204)" stroke-width="1.5" stroke-linecap="round" stroke-linejoin="round"/>
<defs>
<linearGradient id="paint0_linear_5174_20204" x1="0.75" y1="4.18125" x2="23.2397" y2="8.17666" gradientUnits="userSpaceOnUse">
<stop stop-color="#C5FFAA"/>
<stop offset="1" stop-color="#00BAC6"/>
</linearGradient>
<linearGradient id="paint1_linear_5174_20204" x1="3.25" y1="15.4313" x2="20.956" y2="17.8778" gradientUnits="userSpaceOnUse">
<stop stop-color="#C5FFAA"/>
<stop offset="1" stop-color="#00BAC6"/>
</linearGradient>
<linearGradient id="paint2_linear_5174_20204" x1="8.25" y1="16.3" x2="15.949" y2="16.8129" gradientUnits="userSpaceOnUse">
<stop stop-color="#C5FFAA"/>
<stop offset="1" stop-color="#00BAC6"/>
</linearGradient>
</defs>
</svg>
