<svg xmlns="http://www.w3.org/2000/svg" class="icon icon-tabler icon-tabler-building-community" width="44" height="44" viewBox="0 0 24 24" stroke-width="1.5" stroke="url(#paint1_linear_5174_20204)" fill="none" stroke-linecap="round" stroke-linejoin="round">
  <path stroke="none" d="M0 0h24v24H0z" fill="none"/>
  <path d="M8 9l5 5v7h-5v-4m0 4h-5v-7l5 -5m1 1v-6a1 1 0 0 1 1 -1h10a1 1 0 0 1 1 1v17h-8" />
  <line x1="13" y1="7" x2="13" y2="7.01" />
  <line x1="17" y1="7" x2="17" y2="7.01" />
  <line x1="17" y1="11" x2="17" y2="11.01" />
  <line x1="17" y1="15" x2="17" y2="15.01" />
  <defs>
  <linearGradient id="paint0_linear_5174_20204" x1="0.75" y1="4.18125" x2="23.2397" y2="8.17666" gradientUnits="userSpaceOnUse">
  <stop stop-color="#C5FFAA"/>
  <stop offset="1" stop-color="#00BAC6"/>
  </linearGradient>
  <linearGradient id="paint1_linear_5174_20204" x1="3.25" y1="15.4313" x2="20.956" y2="17.8778" gradientUnits="userSpaceOnUse">
  <stop stop-color="#C5FFAA"/>
  <stop offset="1" stop-color="#00BAC6"/>
  </linearGradient>
  <linearGradient id="paint2_linear_5174_20204" x1="8.25" y1="16.3" x2="15.949" y2="16.8129" gradientUnits="userSpaceOnUse">
  <stop stop-color="#C5FFAA"/>
  <stop offset="1" stop-color="#00BAC6"/>
  </linearGradient>
  </defs>
</svg>